<svg width="584" height="544" viewBox="0 0 584 544" fill="none" xmlns="http://www.w3.org/2000/svg">
<circle cx="292" cy="272" r="272" fill="#FEC89A" fill-opacity="0.2"/>
<path d="M81.9648 214.966H87.7949L70.5098 256.07H69.1914L51.5547 214.966H57.4434L69.748 243.707L81.9648 214.966ZM150.455 214.966H156.285L139.732 256.07H138.473L125.084 222.789L111.578 256.07H110.318L93.8242 214.966H99.7129L110.992 243.179L122.33 214.966H127.896L139.293 243.179L150.455 214.966ZM202.129 246.402V252.847C197.832 255.191 192.871 256.363 187.246 256.363C182.676 256.363 178.799 255.445 175.615 253.609C172.432 251.773 169.912 249.244 168.057 246.021C166.201 242.798 165.273 239.312 165.273 235.562C165.273 229.605 167.393 224.595 171.631 220.533C175.889 216.47 181.133 214.439 187.363 214.439C191.66 214.439 196.436 215.562 201.689 217.808V224.107C196.904 221.373 192.227 220.005 187.656 220.005C182.969 220.005 179.072 221.49 175.967 224.459C172.881 227.408 171.338 231.109 171.338 235.562C171.338 240.054 172.861 243.746 175.908 246.636C178.955 249.527 182.852 250.972 187.598 250.972C192.559 250.972 197.402 249.449 202.129 246.402ZM270.555 214.966H276.121V255.894H271.082L243.719 224.4V255.894H238.211V214.966H242.957L270.555 246.724V214.966ZM307.111 239.693V251.148C307.111 252.066 307.424 252.525 308.049 252.525C308.693 252.525 309.699 252.047 311.066 251.089V254.341C309.855 255.123 308.879 255.65 308.137 255.923C307.414 256.216 306.652 256.363 305.852 256.363C303.566 256.363 302.219 255.464 301.809 253.668C299.543 255.425 297.131 256.304 294.572 256.304C292.697 256.304 291.135 255.689 289.885 254.459C288.635 253.209 288.01 251.646 288.01 249.771C288.01 248.072 288.615 246.558 289.826 245.23C291.057 243.882 292.795 242.818 295.041 242.037L301.867 239.693V238.257C301.867 235.015 300.246 233.394 297.004 233.394C294.094 233.394 291.262 234.898 288.508 237.906V232.076C290.578 229.634 293.557 228.414 297.443 228.414C300.354 228.414 302.688 229.175 304.445 230.699C305.031 231.187 305.559 231.841 306.027 232.662C306.496 233.463 306.789 234.273 306.906 235.093C307.043 235.894 307.111 237.427 307.111 239.693ZM301.867 250.562V242.564L298.293 243.941C296.477 244.664 295.188 245.396 294.426 246.138C293.684 246.861 293.312 247.769 293.312 248.863C293.312 249.976 293.664 250.884 294.367 251.588C295.09 252.291 296.018 252.642 297.15 252.642C298.85 252.642 300.422 251.949 301.867 250.562ZM324.537 217.603C325.416 217.603 326.168 217.906 326.793 218.511C327.418 219.117 327.73 219.859 327.73 220.738C327.73 221.597 327.418 222.339 326.793 222.964C326.168 223.589 325.416 223.902 324.537 223.902C323.717 223.902 322.994 223.589 322.369 222.964C321.744 222.32 321.432 221.578 321.432 220.738C321.432 219.918 321.744 219.195 322.369 218.57C322.994 217.925 323.717 217.603 324.537 217.603ZM321.9 228.941H327.232V255.894H321.9V228.941ZM341.084 214.966H346.416V255.894H341.084V214.966ZM393.719 238.726L389.266 236.031C386.473 234.332 384.48 232.662 383.289 231.021C382.117 229.361 381.531 227.457 381.531 225.308C381.531 222.086 382.645 219.468 384.871 217.457C387.117 215.445 390.027 214.439 393.602 214.439C397.02 214.439 400.154 215.396 403.006 217.31V223.961C400.057 221.129 396.883 219.713 393.484 219.713C391.57 219.713 389.998 220.162 388.768 221.06C387.537 221.939 386.922 223.072 386.922 224.459C386.922 225.689 387.371 226.841 388.27 227.916C389.168 228.99 390.623 230.113 392.635 231.285L397.117 233.922C402.117 236.89 404.617 240.679 404.617 245.289C404.617 248.57 403.514 251.236 401.307 253.287C399.119 255.338 396.268 256.363 392.752 256.363C388.709 256.363 385.027 255.123 381.707 252.642V245.201C384.871 249.205 388.533 251.207 392.693 251.207C394.529 251.207 396.053 250.699 397.264 249.683C398.494 248.648 399.109 247.359 399.109 245.816C399.109 243.316 397.312 240.953 393.719 238.726ZM433.264 239.693V251.148C433.264 252.066 433.576 252.525 434.201 252.525C434.846 252.525 435.852 252.047 437.219 251.089V254.341C436.008 255.123 435.031 255.65 434.289 255.923C433.566 256.216 432.805 256.363 432.004 256.363C429.719 256.363 428.371 255.464 427.961 253.668C425.695 255.425 423.283 256.304 420.725 256.304C418.85 256.304 417.287 255.689 416.037 254.459C414.787 253.209 414.162 251.646 414.162 249.771C414.162 248.072 414.768 246.558 415.979 245.23C417.209 243.882 418.947 242.818 421.193 242.037L428.02 239.693V238.257C428.02 235.015 426.398 233.394 423.156 233.394C420.246 233.394 417.414 234.898 414.66 237.906V232.076C416.73 229.634 419.709 228.414 423.596 228.414C426.506 228.414 428.84 229.175 430.598 230.699C431.184 231.187 431.711 231.841 432.18 232.662C432.648 233.463 432.941 234.273 433.059 235.093C433.195 235.894 433.264 237.427 433.264 239.693ZM428.02 250.562V242.564L424.445 243.941C422.629 244.664 421.34 245.396 420.578 246.138C419.836 246.861 419.465 247.769 419.465 248.863C419.465 249.976 419.816 250.884 420.52 251.588C421.242 252.291 422.17 252.642 423.303 252.642C425.002 252.642 426.574 251.949 428.02 250.562ZM448.053 214.966H453.385V255.894H448.053V214.966ZM480.01 228.882C484.111 228.882 487.52 230.211 490.234 232.867C492.949 235.504 494.307 238.824 494.307 242.828C494.307 246.714 492.93 249.947 490.176 252.525C487.422 255.084 483.955 256.363 479.775 256.363C475.732 256.363 472.354 255.064 469.639 252.466C466.924 249.849 465.566 246.588 465.566 242.681C465.566 238.736 466.934 235.455 469.668 232.838C472.422 230.201 475.869 228.882 480.01 228.882ZM479.717 233.687C477.158 233.687 475.059 234.527 473.418 236.207C471.777 237.886 470.957 240.025 470.957 242.623C470.957 245.201 471.797 247.31 473.477 248.951C475.156 250.572 477.314 251.382 479.951 251.382C482.568 251.382 484.707 250.562 486.367 248.922C488.047 247.261 488.887 245.142 488.887 242.564C488.887 240.005 488.018 237.886 486.279 236.207C484.541 234.527 482.354 233.687 479.717 233.687ZM511.557 228.941V232.369C513.939 229.732 516.645 228.414 519.672 228.414C521.352 228.414 522.914 228.853 524.359 229.732C525.805 230.591 526.898 231.783 527.641 233.306C528.402 234.81 528.783 237.203 528.783 240.484V255.894H523.451V240.543C523.451 237.789 523.031 235.826 522.191 234.654C521.352 233.463 519.945 232.867 517.973 232.867C515.453 232.867 513.314 234.127 511.557 236.646V255.894H506.107V228.941H511.557Z" fill="#FFB5A7"/>
<path d="M93.3665 288.988L93.32 271.911L98.7277 271.896C100.355 271.891 101.654 272.327 102.625 273.204C103.596 274.08 104.084 275.259 104.088 276.74C104.09 277.733 103.844 278.612 103.35 279.378C102.856 280.145 102.178 280.704 101.316 281.056C100.454 281.401 99.2179 281.575 97.6066 281.579L95.8 281.584L95.8201 288.982L93.3665 288.988ZM98.3064 274.07L95.7795 274.077L95.794 279.411L98.4674 279.404C99.4602 279.401 100.225 279.167 100.76 278.702C101.296 278.228 101.563 277.556 101.561 276.686C101.556 274.936 100.471 274.064 98.3064 274.07ZM110.789 277.71L110.796 280.286L110.918 280.09C111.988 278.354 113.059 277.484 114.134 277.481C114.972 277.479 115.848 277.9 116.762 278.744L115.595 280.7C114.82 279.97 114.103 279.606 113.444 279.607C112.727 279.609 112.106 279.953 111.579 280.638C111.06 281.323 110.802 282.133 110.804 283.069L110.82 288.941L108.586 288.947L108.556 277.716L110.789 277.71ZM126.192 277.644C127.901 277.639 129.323 278.189 130.457 279.292C131.591 280.388 132.16 281.77 132.165 283.438C132.169 285.058 131.599 286.406 130.455 287.483C129.31 288.553 127.867 289.09 126.126 289.094C124.441 289.099 123.032 288.562 121.898 287.482C120.764 286.395 120.194 285.037 120.19 283.41C120.185 281.766 120.751 280.397 121.888 279.304C123.032 278.202 124.467 277.649 126.192 277.644ZM126.076 279.646C125.009 279.649 124.136 280.001 123.454 280.703C122.772 281.405 122.433 282.297 122.436 283.379C122.439 284.453 122.791 285.331 123.493 286.013C124.195 286.687 125.095 287.022 126.193 287.019C127.284 287.016 128.174 286.672 128.864 285.986C129.562 285.293 129.909 284.409 129.906 283.334C129.904 282.268 129.539 281.386 128.813 280.689C128.087 279.991 127.174 279.643 126.076 279.646ZM137.371 277.638L137.37 276.966C137.365 275.16 137.743 273.812 138.506 272.923C139.277 272.034 140.199 271.588 141.273 271.585C141.737 271.583 142.287 271.655 142.922 271.8L142.928 273.973C142.569 273.844 142.227 273.779 141.902 273.78C141.031 273.783 140.426 274.016 140.085 274.481C139.753 274.946 139.588 275.772 139.591 276.96L139.593 277.632L141.595 277.626L141.6 279.628L139.599 279.634L139.624 288.862L137.402 288.868L137.377 279.64L135.766 279.644L135.76 277.642L137.371 277.638ZM155.451 283.399L147.553 283.421C147.613 284.495 147.974 285.348 148.634 285.981C149.303 286.614 150.163 286.929 151.213 286.926C152.678 286.922 154.027 286.463 155.262 285.548L155.268 287.721C154.585 288.179 153.907 288.506 153.232 288.703C152.565 288.9 151.78 289 150.877 289.002C149.64 289.006 148.638 288.752 147.872 288.242C147.105 287.731 146.489 287.045 146.023 286.184C145.565 285.314 145.334 284.31 145.331 283.17C145.326 281.461 145.807 280.073 146.772 279.004C147.738 277.927 148.993 277.386 150.54 277.382C152.029 277.378 153.219 277.896 154.108 278.935C154.998 279.974 155.446 281.369 155.45 283.118L155.451 283.399ZM147.598 282.09L153.25 282.075C153.191 281.188 152.925 280.505 152.451 280.026C151.978 279.547 151.342 279.309 150.545 279.311C149.747 279.313 149.093 279.555 148.582 280.036C148.078 280.518 147.751 281.202 147.598 282.09ZM159.831 288.001L159.825 285.609C160.453 286.047 161.092 286.403 161.744 286.678C162.404 286.945 162.958 287.077 163.406 287.076C163.869 287.075 164.268 286.96 164.601 286.731C164.934 286.502 165.1 286.229 165.099 285.912C165.098 285.586 164.988 285.318 164.767 285.107C164.555 284.888 164.09 284.576 163.373 284.171C161.939 283.377 160.997 282.7 160.548 282.14C160.107 281.572 159.885 280.954 159.884 280.286C159.881 279.424 160.213 278.719 160.879 278.172C161.553 277.625 162.419 277.35 163.477 277.347C164.575 277.344 165.703 277.65 166.861 278.265L166.867 280.463C165.546 279.669 164.467 279.273 163.628 279.275C163.197 279.276 162.847 279.371 162.579 279.559C162.319 279.739 162.19 279.979 162.191 280.28C162.191 280.541 162.31 280.788 162.547 281.024C162.792 281.259 163.215 281.543 163.819 281.875L164.613 282.324C166.488 283.377 167.427 284.547 167.43 285.832C167.433 286.752 167.073 287.51 166.35 288.106C165.636 288.694 164.713 288.989 163.582 288.992C162.914 288.994 162.32 288.926 161.799 288.79C161.278 288.645 160.622 288.382 159.831 288.001ZM171.95 287.968L171.944 285.576C172.572 286.014 173.212 286.37 173.863 286.645C174.523 286.912 175.077 287.044 175.525 287.043C175.988 287.042 176.387 286.927 176.72 286.698C177.053 286.469 177.219 286.196 177.218 285.879C177.217 285.553 177.107 285.285 176.886 285.074C176.674 284.855 176.21 284.543 175.492 284.138C174.058 283.344 173.116 282.667 172.667 282.107C172.226 281.539 172.004 280.921 172.003 280.253C172 279.391 172.332 278.686 172.998 278.139C173.672 277.592 174.538 277.317 175.596 277.314C176.694 277.311 177.822 277.617 178.98 278.232L178.986 280.43C177.665 279.636 176.586 279.24 175.747 279.242C175.316 279.243 174.967 279.338 174.698 279.526C174.439 279.706 174.309 279.946 174.31 280.247C174.311 280.508 174.429 280.755 174.666 280.991C174.911 281.226 175.335 281.51 175.938 281.842L176.732 282.291C178.607 283.344 179.546 284.513 179.55 285.799C179.552 286.719 179.192 287.477 178.469 288.073C177.755 288.661 176.832 288.956 175.701 288.959C175.033 288.961 174.439 288.893 173.918 288.757C173.397 288.611 172.741 288.349 171.95 287.968ZM185.725 272.782C186.091 272.781 186.405 272.906 186.666 273.158C186.927 273.409 187.058 273.718 187.059 274.084C187.06 274.443 186.931 274.752 186.671 275.013C186.411 275.274 186.098 275.405 185.732 275.406C185.39 275.407 185.089 275.278 184.828 275.018C184.567 274.75 184.436 274.442 184.435 274.092C184.434 273.75 184.563 273.448 184.823 273.187C185.083 272.918 185.383 272.783 185.725 272.782ZM184.639 277.509L186.861 277.503L186.892 288.733L184.67 288.739L184.639 277.509ZM197.955 277.448C199.664 277.444 201.085 277.993 202.219 279.097C203.354 280.192 203.923 281.574 203.927 283.243C203.932 284.862 203.362 286.21 202.217 287.288C201.073 288.357 199.63 288.894 197.888 288.899C196.204 288.903 194.794 288.366 193.66 287.287C192.526 286.199 191.957 284.842 191.952 283.214C191.948 281.57 192.514 280.202 193.65 279.108C194.794 278.006 196.229 277.453 197.955 277.448ZM197.838 279.451C196.772 279.454 195.898 279.806 195.216 280.508C194.535 281.209 194.195 282.101 194.198 283.184C194.201 284.258 194.554 285.136 195.255 285.818C195.957 286.491 196.857 286.826 197.956 286.823C199.046 286.82 199.936 286.476 200.626 285.791C201.324 285.097 201.672 284.213 201.669 283.139C201.666 282.073 201.301 281.191 200.575 280.493C199.849 279.795 198.937 279.448 197.838 279.451ZM211.099 277.437L211.103 278.865C212.093 277.764 213.219 277.211 214.48 277.208C215.18 277.206 215.831 277.387 216.435 277.752C217.038 278.108 217.495 278.604 217.806 279.238C218.125 279.863 218.286 280.86 218.29 282.227L218.307 288.648L216.086 288.654L216.068 282.257C216.065 281.11 215.888 280.293 215.537 279.805C215.185 279.31 214.599 279.063 213.777 279.065C212.727 279.068 211.837 279.596 211.108 280.647L211.13 288.667L208.859 288.674L208.829 277.443L211.099 277.437ZM230.945 281.863L230.958 286.636C230.959 287.018 231.09 287.209 231.35 287.208C231.619 287.208 232.038 287.007 232.606 286.607L232.61 287.962C232.106 288.289 231.7 288.51 231.391 288.624C231.09 288.747 230.773 288.809 230.439 288.81C229.487 288.813 228.925 288.44 228.752 287.692C227.81 288.427 226.806 288.796 225.74 288.798C224.958 288.801 224.307 288.546 223.784 288.035C223.262 287.515 223 286.865 222.998 286.084C222.996 285.376 223.246 284.744 223.749 284.19C224.261 283.627 224.984 283.181 225.919 282.853L228.76 281.869L228.759 281.271C228.755 279.92 228.078 279.246 226.727 279.25C225.514 279.253 224.336 279.883 223.192 281.139L223.185 278.71C224.045 277.691 225.285 277.179 226.904 277.174C228.117 277.171 229.09 277.486 229.824 278.118C230.069 278.321 230.289 278.593 230.486 278.934C230.682 279.268 230.805 279.605 230.855 279.947C230.912 280.28 230.943 280.919 230.945 281.863ZM228.773 286.398L228.763 283.065L227.276 283.643C226.52 283.946 225.984 284.253 225.667 284.563C225.359 284.865 225.205 285.244 225.206 285.699C225.207 286.163 225.355 286.541 225.649 286.833C225.951 287.126 226.338 287.271 226.81 287.27C227.518 287.268 228.172 286.977 228.773 286.398ZM237.079 271.543L239.301 271.537L239.347 288.59L237.126 288.597L237.079 271.543ZM268.336 271.458L270.656 271.452L270.702 288.505L268.603 288.511L257.166 275.419L257.201 288.542L254.906 288.548L254.86 271.495L256.838 271.49L268.373 284.691L268.336 271.458ZM283.596 281.719L283.609 286.492C283.61 286.875 283.741 287.066 284.002 287.065C284.27 287.064 284.689 286.864 285.257 286.463L285.261 287.818C284.757 288.145 284.351 288.366 284.042 288.481C283.741 288.604 283.424 288.666 283.09 288.667C282.138 288.669 281.576 288.296 281.403 287.548C280.461 288.283 279.457 288.652 278.391 288.655C277.609 288.657 276.958 288.403 276.436 287.891C275.913 287.372 275.651 286.722 275.649 285.94C275.647 285.232 275.898 284.601 276.401 284.046C276.912 283.483 277.635 283.038 278.57 282.71L281.411 281.725L281.41 281.127C281.406 279.776 280.729 279.103 279.378 279.106C278.165 279.11 276.987 279.74 275.843 280.996L275.836 278.567C276.696 277.547 277.936 277.035 279.555 277.031C280.768 277.027 281.741 277.342 282.475 277.975C282.72 278.178 282.941 278.45 283.137 278.791C283.333 279.124 283.456 279.461 283.506 279.803C283.564 280.137 283.594 280.775 283.596 281.719ZM281.424 286.254L281.415 282.922L279.927 283.499C279.171 283.803 278.635 284.109 278.318 284.419C278.01 284.721 277.856 285.1 277.857 285.556C277.859 286.02 278.006 286.398 278.3 286.69C278.602 286.982 278.989 287.127 279.461 287.126C280.169 287.124 280.823 286.834 281.424 286.254ZM290.832 272.496C291.198 272.495 291.512 272.62 291.773 272.871C292.034 273.123 292.165 273.432 292.166 273.798C292.167 274.156 292.038 274.466 291.778 274.727C291.518 274.988 291.205 275.119 290.839 275.12C290.497 275.121 290.196 274.992 289.935 274.732C289.674 274.464 289.543 274.155 289.542 273.805C289.541 273.463 289.67 273.162 289.93 272.901C290.19 272.632 290.49 272.496 290.832 272.496ZM289.746 277.223L291.968 277.217L291.999 288.447L289.777 288.453L289.746 277.223ZM297.724 271.378L299.945 271.372L299.992 288.425L297.77 288.431L297.724 271.378ZM330.164 284.388L330.171 287.073C328.384 288.055 326.318 288.549 323.974 288.555C322.07 288.56 320.453 288.182 319.125 287.421C317.796 286.66 316.744 285.609 315.967 284.268C315.19 282.927 314.8 281.476 314.795 279.913C314.788 277.431 315.666 275.341 317.427 273.644C319.197 271.946 321.379 271.094 323.975 271.087C325.766 271.082 327.757 271.544 329.948 272.474L329.956 275.099C327.959 273.965 326.008 273.401 324.104 273.406C322.151 273.411 320.529 274.034 319.238 275.275C317.956 276.507 317.317 278.051 317.322 279.906C317.327 281.778 317.966 283.314 319.239 284.515C320.512 285.716 322.137 286.314 324.114 286.309C326.182 286.303 328.198 285.663 330.164 284.388ZM342.41 281.559L342.423 286.332C342.424 286.715 342.554 286.905 342.815 286.905C343.083 286.904 343.502 286.703 344.071 286.303L344.074 287.658C343.571 287.985 343.164 288.206 342.855 288.321C342.555 288.444 342.237 288.505 341.904 288.506C340.952 288.509 340.389 288.136 340.216 287.388C339.274 288.123 338.27 288.492 337.204 288.495C336.423 288.497 335.771 288.242 335.249 287.731C334.727 287.212 334.464 286.561 334.462 285.78C334.46 285.072 334.711 284.441 335.214 283.886C335.725 283.323 336.448 282.877 337.383 282.549L340.225 281.565L340.223 280.967C340.219 279.616 339.542 278.942 338.191 278.946C336.979 278.949 335.8 279.579 334.656 280.836L334.65 278.406C335.509 277.387 336.749 276.875 338.369 276.87C339.581 276.867 340.555 277.182 341.289 277.815C341.533 278.017 341.754 278.289 341.95 278.631C342.146 278.964 342.269 279.301 342.319 279.643C342.377 279.976 342.407 280.615 342.41 281.559ZM340.237 286.094L340.228 282.761L338.74 283.339C337.984 283.642 337.448 283.949 337.131 284.259C336.823 284.561 336.669 284.94 336.671 285.396C336.672 285.859 336.819 286.237 337.113 286.53C337.415 286.822 337.802 286.967 338.274 286.966C338.982 286.964 339.636 286.673 340.237 286.094ZM350.891 277.056L350.898 279.632L351.02 279.436C352.089 277.7 353.161 276.83 354.235 276.827C355.073 276.825 355.949 277.246 356.863 278.09L355.697 280.046C354.922 279.316 354.204 278.951 353.545 278.953C352.829 278.955 352.207 279.299 351.68 279.984C351.161 280.669 350.903 281.479 350.906 282.415L350.922 288.286L348.688 288.293L348.657 277.062L350.891 277.056ZM370.509 282.813L362.611 282.835C362.671 283.909 363.031 284.762 363.692 285.395C364.361 286.028 365.221 286.343 366.27 286.34C367.735 286.336 369.085 285.877 370.319 284.962L370.325 287.135C369.643 287.593 368.964 287.92 368.289 288.117C367.623 288.314 366.838 288.414 365.934 288.416C364.697 288.42 363.696 288.166 362.929 287.656C362.163 287.145 361.547 286.459 361.08 285.598C360.622 284.728 360.392 283.724 360.389 282.584C360.384 280.875 360.864 279.487 361.83 278.418C362.795 277.341 364.051 276.8 365.597 276.796C367.087 276.792 368.276 277.31 369.166 278.349C370.056 279.388 370.503 280.783 370.508 282.532L370.509 282.813ZM362.656 281.504L368.308 281.489C368.249 280.602 367.982 279.919 367.509 279.44C367.036 278.961 366.4 278.723 365.603 278.725C364.805 278.727 364.151 278.969 363.639 279.45C363.136 279.932 362.808 280.617 362.656 281.504ZM395.702 288.164L393.718 285.85C393.548 286.022 393.255 286.271 392.841 286.598L392.817 286.622C392.24 287.104 391.525 287.517 390.672 287.861C389.826 288.205 389.029 288.378 388.281 288.38C387.101 288.383 386.098 288.003 385.274 287.241C384.45 286.47 384.037 285.531 384.034 284.424C384.032 283.627 384.229 282.906 384.626 282.262C385.031 281.618 385.689 280.961 386.598 280.291L386.635 280.255C387.171 279.854 387.634 279.548 388.024 279.335C386.734 277.963 386.088 276.647 386.084 275.385C386.081 274.222 386.473 273.277 387.261 272.55C388.048 271.824 389.073 271.459 390.334 271.455C391.571 271.452 392.589 271.803 393.389 272.509C394.188 273.215 394.589 274.117 394.592 275.216C394.596 276.705 393.607 278.156 391.626 279.57L391.455 279.704L393.855 282.444C394.553 281.677 395.161 280.76 395.679 279.693L398.12 279.686C397.538 281.201 396.619 282.693 395.361 284.161L398.827 288.156L395.702 288.164ZM391.664 284.648L392.212 284.146L389.432 280.955L388.36 281.715C387.093 282.573 386.46 283.441 386.463 284.32C386.464 284.8 386.673 285.211 387.089 285.551C387.505 285.892 388.006 286.061 388.592 286.06C389.047 286.059 389.56 285.927 390.129 285.665C390.706 285.403 391.217 285.064 391.664 284.648ZM390.071 278.06L390.997 277.398C391.858 276.786 392.288 276.077 392.285 275.271C392.284 274.774 392.1 274.36 391.733 274.027C391.374 273.695 390.917 273.529 390.364 273.53C389.827 273.532 389.384 273.688 389.035 273.998C388.686 274.308 388.512 274.695 388.513 275.159C388.514 275.607 388.654 276.095 388.932 276.623C389.21 277.143 389.59 277.622 390.071 278.06ZM412.811 288.093L412.765 271.065L418.514 271.049C420.833 271.043 422.67 271.388 424.022 272.084C425.375 272.772 426.452 273.79 427.253 275.139C428.055 276.488 428.457 277.96 428.462 279.555C428.465 280.694 428.248 281.785 427.811 282.828C427.375 283.871 426.751 284.788 425.939 285.58C425.111 286.396 424.149 287.013 423.051 287.431C422.409 287.685 421.819 287.857 421.282 287.948C420.746 288.031 419.72 288.075 418.207 288.079L412.811 288.093ZM418.264 273.223L415.212 273.231L415.247 285.914L418.372 285.905C419.592 285.902 420.54 285.818 421.215 285.654C421.89 285.481 422.451 285.268 422.898 285.014C423.353 284.752 423.767 284.434 424.14 284.059C425.342 282.835 425.94 281.291 425.934 279.427C425.929 277.596 425.307 276.105 424.067 274.952C423.61 274.522 423.084 274.17 422.489 273.895C421.903 273.62 421.345 273.438 420.815 273.35C420.286 273.262 419.436 273.219 418.264 273.223ZM443.287 282.615L435.389 282.636C435.449 283.71 435.809 284.564 436.47 285.197C437.139 285.83 437.999 286.145 439.049 286.142C440.513 286.138 441.863 285.679 443.098 284.764L443.103 286.937C442.421 287.394 441.742 287.722 441.068 287.919C440.401 288.116 439.616 288.216 438.712 288.218C437.475 288.222 436.474 287.968 435.707 287.457C434.941 286.947 434.325 286.261 433.858 285.399C433.4 284.53 433.17 283.525 433.167 282.386C433.162 280.677 433.642 279.288 434.608 278.22C435.573 277.143 436.829 276.602 438.376 276.598C439.865 276.594 441.054 277.111 441.944 278.151C442.834 279.19 443.281 280.584 443.286 282.334L443.287 282.615ZM435.434 281.306L441.086 281.29C441.027 280.403 440.76 279.721 440.287 279.242C439.814 278.763 439.178 278.524 438.381 278.527C437.583 278.529 436.929 278.771 436.417 279.252C435.914 279.734 435.586 280.418 435.434 281.306ZM447.667 287.217L447.661 284.825C448.289 285.262 448.928 285.619 449.58 285.894C450.24 286.16 450.794 286.293 451.241 286.292C451.705 286.291 452.104 286.176 452.437 285.947C452.77 285.718 452.936 285.445 452.935 285.128C452.934 284.802 452.823 284.534 452.603 284.323C452.391 284.104 451.926 283.792 451.209 283.387C449.775 282.593 448.833 281.916 448.384 281.356C447.943 280.787 447.721 280.169 447.719 279.502C447.717 278.64 448.049 277.935 448.715 277.388C449.389 276.841 450.255 276.566 451.313 276.563C452.411 276.56 453.539 276.866 454.696 277.481L454.702 279.678C453.382 278.885 452.302 278.489 451.464 278.491C451.033 278.492 450.683 278.587 450.415 278.775C450.155 278.954 450.026 279.195 450.027 279.496C450.027 279.756 450.146 280.004 450.383 280.24C450.627 280.475 451.051 280.759 451.654 281.091L452.449 281.54C454.324 282.593 455.263 283.762 455.266 285.048C455.269 285.968 454.909 286.725 454.186 287.321C453.472 287.909 452.549 288.205 451.417 288.208C450.75 288.21 450.156 288.142 449.635 288.005C449.113 287.86 448.458 287.598 447.667 287.217ZM461.442 272.031C461.808 272.03 462.122 272.155 462.383 272.407C462.644 272.658 462.775 272.967 462.776 273.333C462.777 273.691 462.648 274.001 462.388 274.262C462.128 274.523 461.815 274.654 461.449 274.655C461.107 274.656 460.806 274.527 460.545 274.267C460.283 273.999 460.152 273.69 460.151 273.34C460.15 272.999 460.28 272.697 460.54 272.436C460.799 272.167 461.1 272.032 461.442 272.031ZM460.356 276.758L462.578 276.752L462.608 287.982L460.387 287.988L460.356 276.758ZM467.737 280.619C467.734 279.423 468.167 278.478 469.036 277.784C469.913 277.082 471.108 276.728 472.622 276.724L477.248 276.712L477.253 278.445L474.982 278.451C475.423 278.898 475.729 279.304 475.901 279.67C476.073 280.035 476.16 280.454 476.161 280.926C476.163 281.512 475.997 282.09 475.665 282.661C475.333 283.223 474.903 283.656 474.375 283.958C473.855 284.261 472.997 284.503 471.801 284.686C470.963 284.81 470.545 285.1 470.546 285.556C470.547 285.816 470.702 286.031 471.012 286.201C471.33 286.363 471.9 286.533 472.722 286.709C474.098 287.007 474.982 287.24 475.373 287.41C475.772 287.58 476.131 287.823 476.449 288.14C476.988 288.675 477.258 289.35 477.26 290.164C477.263 291.23 476.789 292.082 475.839 292.719C474.897 293.356 473.632 293.677 472.045 293.682C470.442 293.686 469.159 293.368 468.197 292.728C467.244 292.095 466.765 291.242 466.762 290.168C466.758 288.646 467.695 287.663 469.574 287.219C468.824 286.74 468.448 286.265 468.447 285.793C468.446 285.435 468.604 285.109 468.921 284.816C469.245 284.522 469.68 284.305 470.225 284.165C468.571 283.437 467.742 282.255 467.737 280.619ZM471.907 278.655C471.304 278.657 470.792 278.861 470.37 279.27C469.948 279.678 469.738 280.166 469.739 280.736C469.741 281.314 469.95 281.793 470.366 282.175C470.782 282.548 471.307 282.734 471.942 282.732C472.569 282.73 473.089 282.538 473.503 282.154C473.925 281.762 474.136 281.278 474.134 280.7C474.132 280.114 473.919 279.626 473.495 279.237C473.071 278.847 472.541 278.653 471.907 278.655ZM471.409 288.483C470.66 288.485 470.046 288.645 469.567 288.964C469.095 289.283 468.861 289.69 468.862 290.187C468.865 291.342 469.908 291.917 471.992 291.912C472.976 291.909 473.737 291.76 474.273 291.466C474.818 291.18 475.089 290.772 475.088 290.243C475.086 289.722 474.743 289.296 474.059 288.964C473.374 288.64 472.491 288.48 471.409 288.483ZM483.691 276.694L483.695 278.122C484.685 277.021 485.81 276.469 487.072 276.465C487.772 276.463 488.423 276.645 489.026 277.009C489.629 277.366 490.087 277.861 490.398 278.495C490.717 279.121 490.878 280.117 490.882 281.484L490.899 287.905L488.678 287.911L488.66 281.515C488.657 280.367 488.48 279.55 488.129 279.062C487.777 278.567 487.191 278.32 486.369 278.323C485.319 278.325 484.429 278.853 483.7 279.905L483.722 287.925L481.451 287.931L481.42 276.7L483.691 276.694Z" fill="#FFB5A7"/>
</svg>
